<svg width="1375" height="678" viewBox="0 0 1375 678" fill="none" xmlns="http://www.w3.org/2000/svg">
<path d="M1288 339C1288 431.07 1222.64 515.012 1115.68 576.104C1008.81 637.148 860.965 675 697.5 675C534.035 675 386.192 637.148 279.32 576.104C172.363 515.012 107 431.07 107 339C107 246.93 172.363 162.988 279.32 101.896C386.192 40.8518 534.035 3 697.5 3C860.965 3 1008.81 40.8518 1115.68 101.896C1222.64 162.988 1288 246.93 1288 339Z" fill="#DE7070" fill-opacity="0.24" stroke="#DE7070" stroke-width="6"/>
<path d="M318.5 265C328.717 265 337 258.284 337 250C337 241.716 328.717 235 318.5 235C308.283 235 300 241.716 300 250C300 258.284 308.283 265 318.5 265Z" fill="#FFCA0D"/>
<path d="M311.891 245.923C314.563 241.146 321.437 241.146 324.109 245.923L339.02 272.583C341.63 277.249 338.257 283 332.911 283H303.089C297.743 283 294.37 277.249 296.98 272.583L311.891 245.923Z" fill="#FFCA0D"/>
<path d="M698.5 111C708.717 111 717 104.284 717 96C717 87.7157 708.717 81 698.5 81C688.283 81 680 87.7157 680 96C680 104.284 688.283 111 698.5 111Z" fill="#FFCA0D"/>
<path d="M691.891 91.9231C694.563 87.1458 701.437 87.1458 704.109 91.9231L719.02 118.583C721.63 123.249 718.257 129 712.911 129H683.089C677.743 129 674.37 123.249 676.98 118.583L691.891 91.9231Z" fill="#FFCA0D"/>
<path d="M668.5 280C678.717 280 687 273.284 687 265C687 256.716 678.717 250 668.5 250C658.283 250 650 256.716 650 265C650 273.284 658.283 280 668.5 280Z" fill="#E85E23"/>
<path d="M661.891 260.923C664.563 256.146 671.437 256.146 674.109 260.923L689.02 287.583C691.63 292.249 688.257 298 682.911 298H653.089C647.743 298 644.37 292.249 646.98 287.583L661.891 260.923Z" fill="#E85E23"/>
<path d="M1057.5 248C1067.72 248 1076 241.284 1076 233C1076 224.716 1067.72 218 1057.5 218C1047.28 218 1039 224.716 1039 233C1039 241.284 1047.28 248 1057.5 248Z" fill="#FFCA0D"/>
<path d="M1050.89 228.923C1053.56 224.146 1060.44 224.146 1063.11 228.923L1078.02 255.583C1080.63 260.249 1077.26 266 1071.91 266H1042.09C1036.74 266 1033.37 260.249 1035.98 255.583L1050.89 228.923Z" fill="#FFCA0D"/>
<path d="M597.5 543C607.717 543 616 536.284 616 528C616 519.716 607.717 513 597.5 513C587.283 513 579 519.716 579 528C579 536.284 587.283 543 597.5 543Z" fill="#FFCA0D"/>
<path d="M590.891 523.923C593.563 519.146 600.437 519.146 603.109 523.923L618.02 550.583C620.63 555.249 617.257 561 611.911 561H582.089C576.743 561 573.37 555.249 575.98 550.583L590.891 523.923Z" fill="#FFCA0D"/>
<path d="M104.5 596C114.717 596 123 589.284 123 581C123 572.716 114.717 566 104.5 566C94.2827 566 86 572.716 86 581C86 589.284 94.2827 596 104.5 596Z" fill="white"/>
<path d="M97.8907 576.923C100.563 572.146 107.437 572.146 110.109 576.923L125.02 603.583C127.63 608.249 124.257 614 118.911 614H89.0889C83.7426 614 80.3698 608.249 82.9795 603.583L97.8907 576.923Z" fill="white"/>
<path d="M1322.5 585C1332.72 585 1341 578.284 1341 570C1341 561.716 1332.72 555 1322.5 555C1312.28 555 1304 561.716 1304 570C1304 578.284 1312.28 585 1322.5 585Z" fill="white"/>
<path d="M1315.89 565.923C1318.56 561.146 1325.44 561.146 1328.11 565.923L1343.02 592.583C1345.63 597.249 1342.26 603 1336.91 603H1307.09C1301.74 603 1298.37 597.249 1300.98 592.583L1315.89 565.923Z" fill="white"/>
<path d="M1353.5 405C1363.72 405 1372 398.284 1372 390C1372 381.716 1363.72 375 1353.5 375C1343.28 375 1335 381.716 1335 390C1335 398.284 1343.28 405 1353.5 405Z" fill="white"/>
<path d="M1346.89 385.923C1349.56 381.146 1356.44 381.146 1359.11 385.923L1374.02 412.583C1376.63 417.249 1373.26 423 1367.91 423H1338.09C1332.74 423 1329.37 417.249 1331.98 412.583L1346.89 385.923Z" fill="white"/>
<path d="M22.5 231C32.7173 231 41 224.284 41 216C41 207.716 32.7173 201 22.5 201C12.2827 201 4 207.716 4 216C4 224.284 12.2827 231 22.5 231Z" fill="white"/>
<path d="M15.8907 211.923C18.5626 207.146 25.4373 207.146 28.1093 211.923L43.0205 238.583C45.6302 243.249 42.2574 249 36.9111 249H7.08886C1.74261 249 -1.63022 243.249 0.97953 238.583L15.8907 211.923Z" fill="white"/>
<path d="M891.5 437C901.717 437 910 430.284 910 422C910 413.716 901.717 407 891.5 407C881.283 407 873 413.716 873 422C873 430.284 881.283 437 891.5 437Z" fill="#FFCA0D"/>
<path d="M884.891 417.923C887.563 413.146 894.437 413.146 897.109 417.923L912.02 444.583C914.63 449.249 911.257 455 905.911 455H876.089C870.743 455 867.37 449.249 869.98 444.583L884.891 417.923Z" fill="#FFCA0D"/>
<path d="M713 233H702C699.791 233 698 234.791 698 237V276C698 278.209 699.791 280 702 280H713C715.209 280 717 278.209 717 276V237C717 234.791 715.209 233 713 233Z" fill="#E85E23"/>
<path d="M708 310C715.18 310 721 304.851 721 298.5C721 292.149 715.18 287 708 287C700.82 287 695 292.149 695 298.5C695 304.851 700.82 310 708 310Z" fill="#E85E23"/>
<path d="M728 227.5H647C642.306 227.5 638.5 231.306 638.5 236V308C638.5 312.694 642.306 316.5 647 316.5H728C732.694 316.5 736.5 312.694 736.5 308V236C736.5 231.306 732.694 227.5 728 227.5Z" stroke="black" stroke-width="3"/>
<path d="M148.5 216V471" stroke="#DE7070" stroke-width="3"/>
<path d="M1243 472.5H147" stroke="#DE7070" stroke-width="3"/>
<path d="M214.5 145V534" stroke="#DE7070" stroke-width="3"/>
<path d="M1189 535.5H213" stroke="#DE7070" stroke-width="3"/>
<path d="M293.5 96V581" stroke="#DE7070" stroke-width="3"/>
<path d="M1100 582.5H292" stroke="#DE7070" stroke-width="3"/>
<path d="M1280 300.5H114" stroke="#DE7070" stroke-width="3"/>
<path d="M1279 387.5H113" stroke="#DE7070" stroke-width="3"/>
<path d="M292 94.5H1100" stroke="#DE7070" stroke-width="3"/>
<path d="M367.5 60V617" stroke="#DE7070" stroke-width="3"/>
<path d="M441.5 39V640" stroke="#DE7070" stroke-width="3"/>
<path d="M531.5 16V660" stroke="#DE7070" stroke-width="3"/>
<path d="M608.5 9V669" stroke="#DE7070" stroke-width="3"/>
<path d="M688.5 2V675" stroke="#DE7070" stroke-width="3"/>
<path d="M777.5 9V669" stroke="#DE7070" stroke-width="3"/>
<path d="M861.5 16V660" stroke="#DE7070" stroke-width="3"/>
<path d="M933.5 30V647" stroke="#DE7070" stroke-width="3"/>
<path d="M996.5 48V628" stroke="#DE7070" stroke-width="3"/>
<path d="M1066.5 73V599" stroke="#DE7070" stroke-width="3"/>
<path d="M1127.5 107V570" stroke="#DE7070" stroke-width="3"/>
<path d="M1190.5 154V519" stroke="#DE7070" stroke-width="3"/>
<path d="M1189 155.5H213" stroke="#DE7070" stroke-width="3"/>
<path d="M1244.5 210V471" stroke="#DE7070" stroke-width="3"/>
<path d="M1243 211.5H147" stroke="#DE7070" stroke-width="3"/>
</svg>
