<svg width="493" height="358" viewBox="0 0 493 358" fill="none" xmlns="http://www.w3.org/2000/svg">
<path d="M449.668 356.941L435.587 309.35C435.587 309.35 451.075 326.696 451.075 340.929L448.295 308.016C448.295 308.016 456.238 320.025 455.444 338.261C454.649 356.496 449.668 356.941 449.668 356.941Z" fill="#E6E6E6"/>
<path d="M147.289 313.607L133.547 267.16C133.547 267.16 148.662 284.089 148.662 297.98L145.949 265.858C145.949 265.858 153.701 277.578 152.926 295.376C152.151 313.173 147.289 313.607 147.289 313.607Z" fill="#E6E6E6"/>
<path d="M361.778 335.041C361.802 365.594 307.695 356.196 241.455 356.26C175.216 356.324 121.927 365.826 121.904 335.272C121.88 304.719 175.967 298.021 242.207 297.957C308.446 297.893 361.754 304.487 361.778 335.041Z" fill="#E6E6E6"/>
<path d="M493 356.242H0V357.64H493V356.242Z" fill="#3F3D56"/>
<path d="M315.355 293.778H306.695L302.574 256.367H315.355V293.778Z" fill="#A0616A"/>
<path d="M299.548 291.007H317.211V302.784H289.994V301.707C289.994 298.869 291.001 296.147 292.793 294.141C294.584 292.134 297.014 291.007 299.548 291.007Z" fill="#2F2E41"/>
<path d="M379.008 348.993H370.349L366.227 311.583H379.008V348.993Z" fill="#A0616A"/>
<path d="M363.201 346.223H380.864V358H353.647V356.923C353.647 354.085 354.654 351.363 356.446 349.357C358.237 347.35 360.667 346.223 363.201 346.223Z" fill="#2F2E41"/>
<path d="M418.953 237.854C419.552 237.041 419.984 236.09 420.22 235.07C420.455 234.049 420.488 232.983 420.315 231.947C420.143 230.91 419.77 229.929 419.222 229.072C418.675 228.214 417.966 227.502 417.146 226.985L397.033 135.22L384.173 141.417L408.096 230.146C407.411 231.746 407.274 233.572 407.712 235.278C408.149 236.984 409.129 238.451 410.468 239.401C411.806 240.351 413.409 240.718 414.973 240.433C416.537 240.148 417.953 239.23 418.953 237.854Z" fill="#A0616A"/>
<path d="M403.266 52.3947C402.549 51.5542 401.675 50.9003 400.707 50.4789C399.739 50.0575 398.701 49.8789 397.664 49.9557C396.628 50.0325 395.62 50.3628 394.71 50.9234C393.8 51.4839 393.011 52.2611 392.398 53.2002L361.267 57.203L366.003 70.6515L394.315 64.717C395.792 65.7651 397.56 66.1702 399.286 65.8554C401.011 65.5406 402.574 64.5278 403.677 63.0089C404.781 61.49 405.348 59.5706 405.273 57.6143C405.197 55.658 404.483 53.8008 403.266 52.3947Z" fill="#A0616A"/>
<path d="M351.965 228.337L365.549 342.525L382.457 338.626C382.457 338.626 379.97 255.466 388.424 245.441C396.878 235.416 377.551 217.853 377.551 217.853L351.965 228.337Z" fill="#2F2E41"/>
<path d="M357.581 196.885L351.34 207.369C351.34 207.369 303.289 185.004 303.289 220.649C303.289 256.294 300.539 280.484 299.544 282.155C298.55 283.826 311.05 288.162 317.018 287.048C317.018 287.048 324.38 229.582 323.882 226.24C323.882 226.24 371.019 252.124 379.97 249.896C388.921 247.669 391.036 239.782 392.528 235.327C394.02 230.871 391.904 195.487 391.904 195.487L362.068 185.289L357.581 196.885Z" fill="#2F2E41"/>
<path d="M358.423 133.939L356.644 131.548C356.644 131.548 336.722 81.3449 344.549 67.798C352.375 54.2511 386.527 52.2589 387.594 53.0558C388.662 53.8527 385.045 64.1988 387.535 68.9801C387.535 68.9801 361.079 75.4041 359.301 76.201C357.522 76.9979 373.009 106.446 373.009 106.446L371.23 124.376L358.423 133.939Z" fill="#CCCCCC"/>
<path d="M393.286 109.236C393.286 109.236 374.787 111.626 374.076 111.626C373.364 111.626 373.009 106.446 373.009 106.446L356.644 131.548C356.644 131.548 348.582 204.371 350.716 203.175C352.851 201.98 392.219 208.845 392.575 205.658C392.931 202.47 392.219 186.532 393.286 185.736C394.354 184.939 411.785 135.532 411.785 135.532C411.785 135.532 410.006 125.173 403.959 121.587C397.911 118.001 393.286 109.236 393.286 109.236Z" fill="#CCCCCC"/>
<path d="M406.093 128.759L411.785 135.532C411.785 135.532 420.243 213.366 415.618 215.756C410.993 218.147 401.889 217.853 401.889 217.853L392.931 180.954L406.093 128.759Z" fill="#CCCCCC"/>
<path d="M375.51 104.307C384.553 104.307 391.884 96.0958 391.884 85.9673C391.884 75.8388 384.553 67.6281 375.51 67.6281C366.467 67.6281 359.135 75.8388 359.135 85.9673C359.135 96.0958 366.467 104.307 375.51 104.307Z" fill="#A0616A"/>
<path d="M371.668 88.8289C371.446 85.0236 367.16 84.8932 363.755 84.8572C360.351 84.8212 356.28 84.9573 354.354 81.8131C353.081 79.7351 353.324 76.8503 354.376 74.6224C355.427 72.3946 357.157 70.6812 358.859 69.0328C363.254 64.7771 367.782 60.5552 373.058 57.8312C378.334 55.1073 384.516 54.0067 389.987 56.1934C396.708 58.8794 405.794 72.7062 406.578 80.6502C407.363 88.5942 404.528 96.6925 399.75 102.629C394.972 108.565 384.035 106.17 377.153 108.282C381.337 101.649 378.579 89.5975 371.876 86.5002L371.668 88.8289Z" fill="#2F2E41"/>
<path d="M225.733 326.049C247.442 326.049 265.041 306.338 265.041 282.023C265.041 257.709 247.442 237.998 225.733 237.998C204.023 237.998 186.424 257.709 186.424 282.023C186.424 306.338 204.023 326.049 225.733 326.049Z" fill="#FFBEED"/>
<path d="M199.482 234.871C194.034 234.871 188.703 233.103 184.133 229.78C179.564 226.457 175.953 221.723 173.736 216.149L111.361 58.8243C109.295 53.6129 108.202 47.9834 108.15 42.2816C108.098 36.5798 109.087 30.9263 111.058 25.6686C113.028 20.4108 115.938 15.66 119.608 11.708C123.278 7.75612 127.631 4.68657 132.399 2.68808C137.167 0.689584 142.25 -0.195622 147.335 0.0868774C152.42 0.369377 157.399 1.81361 161.968 4.3308C166.536 6.848 170.596 10.3849 173.899 14.7243C177.202 19.0636 179.678 24.1136 181.174 29.564L226.341 194.102C227.634 198.811 227.923 203.795 227.184 208.652C226.446 213.51 224.7 218.105 222.088 222.07C219.476 226.035 216.07 229.258 212.144 231.481C208.218 233.704 203.881 234.865 199.482 234.871Z" fill="#FFBEED"/>
</svg>
