<svg width="98" height="98" viewBox="0 0 98 98" fill="none" xmlns="http://www.w3.org/2000/svg">
<g clip-path="url(#clip0)">
<path d="M9.59178 42.9745C9.19376 41.4894 9.19371 39.9257 9.59162 38.4407C9.98954 36.9556 10.7714 35.6014 11.8586 34.5143L34.5134 11.8592C35.6005 10.772 36.9547 9.99017 38.4397 9.59225C39.9248 9.19433 41.4884 9.19438 42.9735 9.59241L64.1727 15.2728C64.3933 12.3685 65.4045 9.57997 67.0966 7.20915L41.5637 0.368256C39.731 -0.122762 37.8014 -0.122752 35.9687 0.368288C34.136 0.859331 32.4649 1.82411 31.1233 3.16565L3.16561 31.1236C1.82408 32.4653 0.859318 34.1364 0.368285 35.9691C-0.122751 37.8018 -0.122761 39.7314 0.368252 41.5641L7.47223 68.0766C9.79454 66.3031 12.5594 65.2016 15.4651 64.8927L9.59178 42.9745Z" fill="white"/>
<path d="M82.3387 32.3747L88.4081 55.0255C88.8063 56.5109 88.8058 58.0744 88.4081 59.5592C88.0099 61.0445 87.2279 62.3986 86.1408 63.4857L63.486 86.1413C62.3988 87.2285 61.0448 88.0099 59.5595 88.4081C58.0747 88.8058 56.5107 88.8058 55.0259 88.4081L33.1079 82.5348C32.7991 85.4406 31.6978 88.2056 29.9241 90.5277L56.4363 97.6318C58.2687 98.123 60.1985 98.123 62.031 97.6318C63.864 97.1405 65.5348 96.1762 66.8766 94.8344L94.8343 66.8764C96.1761 65.5346 97.1404 63.8637 97.6316 62.0307C98.1229 60.1982 98.1229 58.2684 97.6316 56.4359L90.2597 28.9309C87.9866 30.7863 85.2455 31.978 82.3387 32.3747Z" fill="white"/>
<path d="M8.10952 71.7333C6.31399 73.5286 5.09122 75.8167 4.59582 78.3068C4.10043 80.7974 4.35468 83.379 5.32641 85.725C6.29809 88.0705 7.94366 90.0758 10.0549 91.4867C12.1662 92.8971 14.6484 93.6504 17.1876 93.6504C19.7269 93.6504 22.2091 92.8971 24.3203 91.4867C26.4316 90.0758 28.0772 88.0705 29.0489 85.725C30.0206 83.379 30.2748 80.7974 29.7794 78.3068C29.2841 75.8167 28.0613 73.5286 26.2658 71.7333C23.8562 69.3293 20.5914 67.979 17.1876 67.979C13.7839 67.979 10.5191 69.3293 8.10952 71.7333Z" fill="#89CFF0"/>
<path d="M71.0683 7.44794C69.2731 9.24344 68.0498 11.5311 67.5549 14.0215C67.0594 16.512 67.3135 19.0934 68.2853 21.4394C69.2571 23.7854 70.9025 25.7905 73.0135 27.2012C75.1251 28.612 77.6072 29.365 80.1462 29.365C82.6857 29.365 85.1678 28.612 87.2794 27.2012C89.3905 25.7905 91.0358 23.7854 92.0076 21.4394C92.9794 19.0934 93.2335 16.512 92.738 14.0215C92.2431 11.5311 91.0199 9.24344 89.2246 7.44794C86.8153 5.04379 83.5501 3.6936 80.1462 3.6936C76.7428 3.6936 73.4776 5.04379 71.0683 7.44794Z" fill="#89CFF0"/>
<path d="M56.5354 83.0321C56.0197 83.0321 55.5067 82.9646 55.0086 82.8312L34.9455 77.4549C34.2765 73.8824 32.5433 70.5954 29.9733 68.0255C27.4033 65.4557 24.1165 63.7221 20.544 63.0533L15.1683 42.9915C14.9018 41.9908 14.9026 40.9377 15.1706 39.9375C15.4386 38.9372 15.9645 38.0248 16.6956 37.2915L37.2883 16.698C38.0208 15.9655 38.9332 15.4387 39.9339 15.1705C40.9346 14.9024 41.9882 14.9025 42.9888 15.1707L62.4895 20.396C63.263 23.9464 65.0907 27.1803 67.7334 29.6743C70.376 32.1683 73.7103 33.806 77.2992 34.3728L82.828 55.0114C83.0944 56.0125 83.0938 57.0656 82.8254 58.0656C82.5574 59.0661 82.0317 59.9784 81.3002 60.712L60.7075 81.3049C60.161 81.8541 59.5103 82.29 58.7942 82.5861C58.0782 82.8828 57.3105 83.0343 56.5354 83.0321Z" fill="#89CFF0"/>
<path d="M55 34H43V54H55V34Z" fill="#FB7878"/>
<path d="M55 59H43V68H55V59Z" fill="#FB7878"/>
</g>
<defs>
<clipPath id="clip0">
<rect width="98" height="98" fill="white"/>
</clipPath>
</defs>
</svg>
